# xmcd
#
# Track frame offsets: 
#        150
#        11955
#        26677
#        41988
#        55381
#        71078
#        87507
#        103647
#        123538
#        140212
#        165176
#        177185
#        194412
#        213648
#        232944
#        246026
#        254454
#        263885
#        275710
#        290086
#
# Disc length: 4144 seconds
#
# Revision: 0
# Processed by: cddbd v1.4PL0 Copyright (c) Steve Scherf et al.
# Submitted via: ExactAudioCopy v0.90b4
#
DISCID=3e102e14
DTITLE=Various Artist - All Star Bluegrass Celebration 2
DYEAR=2003
DGENRE=Bluegrass
TTITLE0=My Walkin' Shoes
TTITLE1=Everytime You Say Goodbye
TTITLE2=Cluck Old Hen
TTITLE3=Girl From the Greenbriar Shore
TTITLE4=Kentucky Borderline
TTITLE5=Smoothie Song
TTITLE6=My Love Will Not Change
TTITLE7=It's Just the Night
TTITLE8=Four and Twenty Elders
TTITLE9=Orange Blossom Special
TTITLE10=A Simple Life
TTITLE11=I Miss Who I Was With You
TTITLE12=Ramblin' Heart - Real Time
TTITLE13=This Old Guitar and Me
TTITLE14=Blue Moon of Kentucky
TTITLE15=Are You Missing Me
TTITLE16=I Wonder How the Old Folks are at Home
TTITLE17=Tis Sweet To Be Remembered
TTITLE18=Lonesome Fiddle Blues
TTITLE19=Amazing Grace
EXTD=
EXTT0=
EXTT1=
EXTT2=
EXTT3=
EXTT4=
EXTT5=
EXTT6=
EXTT7=
EXTT8=
EXTT9=
EXTT10=
EXTT11=
EXTT12=
EXTT13=
EXTT14=
EXTT15=
EXTT16=
EXTT17=
EXTT18=
EXTT19=
PLAYORDER=
